<svg width="1280" height="720" xmlns="http://www.w3.org/2000/svg" xmlns:xlink="http://www.w3.org/1999/xlink" overflow="hidden"><defs><clipPath id="clip0"><rect x="0" y="0" width="1280" height="720"/></clipPath><linearGradient x1="640" y1="295.328" x2="640" y2="423.328" gradientUnits="userSpaceOnUse" spreadMethod="reflect" id="fill1"><stop offset="0" stop-color="#FFC000"/><stop offset="0.04" stop-color="#FFD966"/><stop offset="0.87" stop-color="#FFF2CC"/><stop offset="1" stop-color="#FFF2CC"/></linearGradient></defs><g clip-path="url(#clip0)"><rect x="0" y="0" width="1280" height="720" fill="#FFFFFF"/><path d="M453.58 354.367C451.629 354.367 449.923 354.724 448.46 355.438 446.997 356.152 445.795 357.197 444.855 358.573 443.914 359.949 443.209 361.603 442.739 363.536 442.268 365.469 442.033 367.672 442.033 370.145 442.033 372.444 442.225 374.56 442.608 376.493 442.991 378.426 443.609 380.107 444.463 381.535 445.316 382.963 446.474 384.069 447.937 384.853 449.4 385.636 451.211 386.028 453.371 386.028 455.356 386.028 457.08 385.671 458.543 384.957 460.006 384.243 461.208 383.207 462.148 381.849 463.089 380.49 463.785 378.844 464.238 376.911 464.691 374.978 464.917 372.775 464.917 370.302 464.917 368.003 464.734 365.887 464.369 363.954 464.003 362.021 463.385 360.341 462.514 358.913 461.643 357.484 460.485 356.37 459.039 355.569 457.594 354.768 455.774 354.367 453.58 354.367ZM843.065 353.27C841.393 353.27 839.939 353.583 838.702 354.21 837.466 354.837 836.438 355.682 835.62 356.744 834.801 357.807 834.174 359.061 833.739 360.506 833.303 361.952 833.051 363.493 832.981 365.13L852.626 365.13C852.73 361.438 851.99 358.538 850.405 356.431 848.82 354.324 846.374 353.27 843.065 353.27ZM688.065 353.27C686.393 353.27 684.939 353.583 683.702 354.21 682.466 354.837 681.438 355.682 680.62 356.744 679.801 357.807 679.174 359.061 678.739 360.506 678.303 361.952 678.051 363.493 677.981 365.13L697.626 365.13C697.73 361.438 696.99 358.538 695.405 356.431 693.82 354.324 691.374 353.27 688.065 353.27ZM597.065 353.27C595.393 353.27 593.939 353.583 592.702 354.21 591.466 354.837 590.438 355.682 589.62 356.744 588.801 357.807 588.174 359.061 587.739 360.506 587.303 361.952 587.051 363.493 586.981 365.13L606.626 365.13C606.73 361.438 605.99 358.538 604.405 356.431 602.82 354.324 600.374 353.27 597.065 353.27ZM798.96 344.022C800.353 344.022 801.72 344.144 803.061 344.388 804.402 344.632 805.656 344.963 806.823 345.381 807.99 345.799 809.035 346.269 809.958 346.791 810.881 347.314 811.534 347.767 811.917 348.15 812.3 348.533 812.57 348.855 812.727 349.116 812.884 349.378 813.006 349.717 813.093 350.135 813.18 350.553 813.249 351.067 813.302 351.676 813.354 352.286 813.38 353.026 813.38 353.897 813.38 355.917 813.206 357.336 812.858 358.155 812.509 358.974 812.056 359.383 811.499 359.383 810.907 359.383 810.28 359.139 809.618 358.651 808.957 358.164 808.173 357.624 807.267 357.032 806.362 356.44 805.282 355.9 804.028 355.412 802.774 354.924 801.276 354.681 799.535 354.681 796.121 354.681 793.509 355.995 791.698 358.625 789.887 361.255 788.981 365.112 788.981 370.198 788.981 372.706 789.208 374.917 789.66 376.833 790.113 378.749 790.784 380.351 791.672 381.64 792.56 382.928 793.675 383.895 795.016 384.539 796.357 385.184 797.915 385.506 799.692 385.506 801.503 385.506 803.061 385.236 804.368 384.696 805.674 384.156 806.814 383.555 807.79 382.893 808.765 382.232 809.584 381.631 810.245 381.091 810.907 380.551 811.464 380.281 811.917 380.281 812.231 380.281 812.492 380.368 812.701 380.542 812.91 380.717 813.075 381.039 813.197 381.509 813.319 381.979 813.415 382.58 813.484 383.311 813.554 384.043 813.589 384.983 813.589 386.133 813.589 387.038 813.563 387.796 813.511 388.405 813.458 389.015 813.389 389.529 813.302 389.947 813.215 390.365 813.11 390.704 812.988 390.966 812.866 391.227 812.596 391.558 812.178 391.958 811.76 392.359 811.046 392.846 810.036 393.421 809.026 393.996 807.877 394.51 806.588 394.962 805.299 395.415 803.897 395.781 802.382 396.06 800.867 396.338 799.308 396.477 797.706 396.477 794.119 396.477 790.94 395.92 788.171 394.806 785.402 393.691 783.077 392.045 781.196 389.868 779.316 387.691 777.896 385.036 776.938 381.901 775.981 378.766 775.502 375.178 775.502 371.138 775.502 366.471 776.085 362.439 777.252 359.043 778.419 355.647 780.047 352.835 782.137 350.605 784.227 348.376 786.7 346.722 789.556 345.642 792.412 344.562 795.547 344.022 798.96 344.022ZM892.78 343.97C894.243 343.97 895.663 344.075 897.039 344.284 898.414 344.493 899.659 344.754 900.774 345.067 901.889 345.381 902.829 345.72 903.595 346.086 904.362 346.452 904.91 346.765 905.241 347.027 905.572 347.288 905.807 347.549 905.946 347.81 906.086 348.071 906.19 348.385 906.26 348.751 906.33 349.116 906.391 349.569 906.443 350.109 906.495 350.649 906.521 351.319 906.521 352.121 906.521 353.061 906.495 353.827 906.443 354.419 906.391 355.012 906.303 355.482 906.182 355.83 906.06 356.178 905.894 356.413 905.685 356.535 905.476 356.657 905.232 356.718 904.954 356.718 904.64 356.718 904.153 356.535 903.491 356.17 902.829 355.804 902.002 355.412 901.009 354.994 900.016 354.576 898.867 354.184 897.561 353.819 896.255 353.453 894.766 353.27 893.094 353.27 891.91 353.27 890.882 353.392 890.011 353.636 889.141 353.88 888.427 354.228 887.869 354.681 887.312 355.133 886.894 355.665 886.615 356.274 886.337 356.884 886.197 357.537 886.197 358.233 886.197 359.313 886.528 360.219 887.19 360.95 887.852 361.682 888.723 362.326 889.802 362.883 890.882 363.441 892.11 363.963 893.486 364.451 894.862 364.938 896.255 365.469 897.665 366.044 899.076 366.619 900.469 367.289 901.845 368.056 903.221 368.822 904.449 369.762 905.529 370.877 906.608 371.991 907.479 373.324 908.141 374.874 908.803 376.424 909.133 378.261 909.133 380.386 909.133 383.033 908.637 385.366 907.644 387.387 906.652 389.407 905.25 391.096 903.439 392.455 901.627 393.813 899.485 394.832 897.012 395.511 894.539 396.19 891.857 396.53 888.966 396.53 887.225 396.53 885.562 396.399 883.977 396.138 882.392 395.877 880.973 395.546 879.719 395.145 878.465 394.745 877.42 394.335 876.584 393.917 875.748 393.499 875.139 393.108 874.756 392.742 874.372 392.376 874.076 391.801 873.867 391.018 873.658 390.234 873.554 389.076 873.554 387.543 873.554 386.533 873.589 385.724 873.658 385.114 873.728 384.504 873.833 384.017 873.972 383.651 874.111 383.285 874.285 383.042 874.494 382.92 874.703 382.798 874.965 382.737 875.278 382.737 875.661 382.737 876.227 382.954 876.976 383.39 877.725 383.825 878.657 384.304 879.771 384.827 880.886 385.349 882.183 385.837 883.664 386.289 885.144 386.742 886.824 386.969 888.705 386.969 889.89 386.969 890.943 386.847 891.866 386.603 892.789 386.359 893.59 386.011 894.269 385.558 894.949 385.105 895.462 384.531 895.811 383.834 896.159 383.137 896.333 382.336 896.333 381.431 896.333 380.386 896.011 379.489 895.367 378.74 894.722 377.991 893.869 377.338 892.807 376.781 891.744 376.223 890.543 375.701 889.202 375.213 887.861 374.726 886.485 374.186 885.074 373.594 883.664 373.002 882.288 372.322 880.947 371.556 879.606 370.79 878.404 369.849 877.342 368.735 876.279 367.62 875.426 366.279 874.782 364.712 874.137 363.144 873.815 361.264 873.815 359.069 873.815 356.84 874.25 354.794 875.121 352.93 875.992 351.067 877.246 349.473 878.883 348.15 880.52 346.826 882.514 345.799 884.865 345.067 887.216 344.336 889.855 343.97 892.78 343.97ZM843.378 343.97C847.279 343.97 850.614 344.545 853.383 345.694 856.152 346.844 858.425 348.437 860.201 350.475 861.978 352.512 863.284 354.924 864.12 357.711 864.956 360.497 865.374 363.528 865.374 366.802L865.374 368.892C865.374 370.494 865.017 371.678 864.303 372.444 863.589 373.211 862.605 373.594 861.351 373.594L832.981 373.594C832.981 375.579 833.216 377.382 833.686 379.001 834.157 380.621 834.906 381.997 835.933 383.129 836.961 384.261 838.284 385.123 839.904 385.715 841.523 386.307 843.465 386.603 845.729 386.603 848.028 386.603 850.048 386.438 851.79 386.107 853.531 385.776 855.038 385.41 856.309 385.009 857.58 384.609 858.634 384.243 859.47 383.912 860.306 383.581 860.985 383.416 861.508 383.416 861.821 383.416 862.082 383.477 862.291 383.599 862.5 383.721 862.674 383.938 862.814 384.252 862.953 384.565 863.049 385.009 863.101 385.584 863.153 386.159 863.179 386.882 863.179 387.752 863.179 388.519 863.162 389.172 863.127 389.712 863.092 390.251 863.04 390.713 862.97 391.096 862.901 391.479 862.796 391.801 862.657 392.063 862.518 392.324 862.335 392.576 862.108 392.82 861.882 393.064 861.264 393.395 860.254 393.813 859.244 394.231 857.955 394.64 856.387 395.041 854.82 395.441 853.026 395.79 851.006 396.086 848.986 396.382 846.826 396.53 844.528 396.53 840.383 396.53 836.752 396.007 833.634 394.962 830.517 393.917 827.913 392.333 825.823 390.208 823.734 388.083 822.175 385.401 821.147 382.162 820.12 378.923 819.606 375.126 819.606 370.772 819.606 366.628 820.146 362.892 821.226 359.566 822.306 356.239 823.873 353.418 825.928 351.102 827.983 348.786 830.482 347.018 833.425 345.799 836.368 344.58 839.686 343.97 843.378 343.97ZM748.752 343.97C751.922 343.97 754.595 344.493 756.772 345.538 758.949 346.582 760.708 348.002 762.049 349.796 763.39 351.589 764.356 353.688 764.948 356.091 765.541 358.495 765.837 361.386 765.837 364.764L765.837 393.552C765.837 393.9 765.732 394.205 765.523 394.466 765.314 394.727 764.966 394.945 764.478 395.119 763.991 395.293 763.32 395.424 762.467 395.511 761.613 395.598 760.56 395.642 759.306 395.642 758.017 395.642 756.946 395.598 756.093 395.511 755.239 395.424 754.569 395.293 754.081 395.119 753.594 394.945 753.245 394.727 753.036 394.466 752.827 394.205 752.723 393.9 752.723 393.552L752.723 366.958C752.723 364.694 752.557 362.918 752.226 361.629 751.896 360.341 751.417 359.235 750.79 358.312 750.163 357.389 749.353 356.675 748.36 356.17 747.368 355.665 746.209 355.412 744.886 355.412 743.214 355.412 741.525 356.022 739.818 357.241 738.111 358.46 736.335 360.236 734.489 362.57L734.489 393.552C734.489 393.9 734.384 394.205 734.175 394.466 733.966 394.727 733.609 394.945 733.104 395.119 732.599 395.293 731.929 395.424 731.093 395.511 730.257 395.598 729.195 395.642 727.906 395.642 726.617 395.642 725.555 395.598 724.719 395.511 723.883 395.424 723.213 395.293 722.707 395.119 722.202 394.945 721.845 394.727 721.636 394.466 721.427 394.205 721.323 393.9 721.323 393.552L721.323 346.948C721.323 346.6 721.41 346.295 721.584 346.034 721.758 345.773 722.072 345.555 722.525 345.381 722.977 345.207 723.561 345.076 724.275 344.989 724.989 344.902 725.886 344.858 726.966 344.858 728.08 344.858 729.003 344.902 729.734 344.989 730.466 345.076 731.032 345.207 731.433 345.381 731.833 345.555 732.12 345.773 732.295 346.034 732.469 346.295 732.556 346.6 732.556 346.948L732.556 352.33C735.133 349.543 737.754 347.453 740.419 346.06 743.083 344.667 745.861 343.97 748.752 343.97ZM688.378 343.97C692.279 343.97 695.614 344.545 698.383 345.694 701.152 346.844 703.425 348.437 705.201 350.475 706.978 352.512 708.284 354.924 709.12 357.711 709.956 360.497 710.374 363.528 710.374 366.802L710.374 368.892C710.374 370.494 710.017 371.678 709.303 372.444 708.589 373.211 707.605 373.594 706.351 373.594L677.981 373.594C677.981 375.579 678.216 377.382 678.686 379.001 679.157 380.621 679.906 381.997 680.933 383.129 681.961 384.261 683.284 385.123 684.904 385.715 686.523 386.307 688.465 386.603 690.729 386.603 693.028 386.603 695.048 386.438 696.79 386.107 698.531 385.776 700.038 385.41 701.309 385.009 702.58 384.609 703.634 384.243 704.47 383.912 705.306 383.581 705.985 383.416 706.508 383.416 706.821 383.416 707.082 383.477 707.291 383.599 707.5 383.721 707.674 383.938 707.814 384.252 707.953 384.565 708.049 385.009 708.101 385.584 708.153 386.159 708.179 386.882 708.179 387.752 708.179 388.519 708.162 389.172 708.127 389.712 708.092 390.251 708.04 390.713 707.97 391.096 707.901 391.479 707.796 391.801 707.657 392.063 707.518 392.324 707.335 392.576 707.108 392.82 706.882 393.064 706.264 393.395 705.254 393.813 704.244 394.231 702.955 394.64 701.387 395.041 699.82 395.441 698.026 395.79 696.006 396.086 693.986 396.382 691.826 396.53 689.527 396.53 685.383 396.53 681.752 396.007 678.634 394.962 675.517 393.917 672.913 392.333 670.823 390.208 668.734 388.083 667.175 385.401 666.147 382.162 665.12 378.923 664.606 375.126 664.606 370.772 664.606 366.628 665.146 362.892 666.226 359.566 667.306 356.239 668.873 353.418 670.928 351.102 672.983 348.786 675.482 347.018 678.425 345.799 681.368 344.58 684.686 343.97 688.378 343.97ZM653.938 343.97C654.391 343.97 654.879 343.996 655.401 344.049 655.924 344.101 656.463 344.188 657.021 344.31 657.578 344.432 658.066 344.571 658.484 344.728 658.902 344.884 659.206 345.05 659.398 345.224 659.589 345.398 659.729 345.59 659.816 345.799 659.903 346.008 659.981 346.295 660.051 346.661 660.121 347.027 660.173 347.575 660.208 348.307 660.243 349.038 660.26 350.031 660.26 351.285 660.26 352.539 660.225 353.566 660.155 354.367 660.086 355.168 659.981 355.795 659.842 356.248 659.703 356.701 659.52 357.014 659.293 357.188 659.067 357.363 658.78 357.45 658.431 357.45 658.153 357.45 657.839 357.389 657.491 357.267 657.143 357.145 656.751 357.014 656.315 356.875 655.88 356.736 655.401 356.605 654.879 356.483 654.356 356.361 653.781 356.3 653.154 356.3 652.423 356.3 651.692 356.448 650.96 356.744 650.229 357.04 649.471 357.502 648.687 358.129 647.904 358.756 647.085 359.592 646.232 360.637 645.379 361.682 644.464 362.97 643.489 364.503L643.489 393.552C643.489 393.9 643.384 394.205 643.175 394.466 642.966 394.727 642.609 394.945 642.104 395.119 641.599 395.293 640.929 395.424 640.093 395.511 639.257 395.598 638.195 395.642 636.906 395.642 635.617 395.642 634.555 395.598 633.719 395.511 632.883 395.424 632.213 395.293 631.707 395.119 631.202 394.945 630.845 394.727 630.636 394.466 630.427 394.205 630.323 393.9 630.323 393.552L630.323 346.948C630.323 346.6 630.41 346.295 630.584 346.034 630.758 345.773 631.072 345.555 631.525 345.381 631.977 345.207 632.561 345.076 633.275 344.989 633.989 344.902 634.886 344.858 635.966 344.858 637.08 344.858 638.003 344.902 638.735 344.989 639.466 345.076 640.032 345.207 640.433 345.381 640.833 345.555 641.12 345.773 641.295 346.034 641.469 346.295 641.556 346.6 641.556 346.948L641.556 352.747C642.775 351.006 643.924 349.569 645.004 348.437 646.084 347.305 647.111 346.408 648.087 345.747 649.062 345.085 650.037 344.623 651.012 344.362 651.988 344.101 652.963 343.97 653.938 343.97ZM597.378 343.97C601.279 343.97 604.614 344.545 607.383 345.694 610.152 346.844 612.425 348.437 614.201 350.475 615.978 352.512 617.284 354.924 618.12 357.711 618.956 360.497 619.374 363.528 619.374 366.802L619.374 368.892C619.374 370.494 619.017 371.678 618.303 372.444 617.589 373.211 616.605 373.594 615.351 373.594L586.981 373.594C586.981 375.579 587.216 377.382 587.686 379.001 588.157 380.621 588.906 381.997 589.933 383.129 590.961 384.261 592.284 385.123 593.904 385.715 595.523 386.307 597.465 386.603 599.729 386.603 602.028 386.603 604.048 386.438 605.79 386.107 607.531 385.776 609.038 385.41 610.309 385.009 611.58 384.609 612.634 384.243 613.47 383.912 614.306 383.581 614.985 383.416 615.508 383.416 615.821 383.416 616.082 383.477 616.291 383.599 616.5 383.721 616.674 383.938 616.814 384.252 616.953 384.565 617.049 385.009 617.101 385.584 617.153 386.159 617.179 386.882 617.179 387.752 617.179 388.519 617.162 389.172 617.127 389.712 617.092 390.251 617.04 390.713 616.97 391.096 616.901 391.479 616.796 391.801 616.657 392.063 616.518 392.324 616.335 392.576 616.108 392.82 615.882 393.064 615.264 393.395 614.254 393.813 613.244 394.231 611.955 394.64 610.387 395.041 608.82 395.441 607.026 395.79 605.006 396.086 602.986 396.382 600.826 396.53 598.528 396.53 594.383 396.53 590.752 396.007 587.634 394.962 584.517 393.917 581.913 392.333 579.823 390.208 577.734 388.083 576.175 385.401 575.147 382.162 574.12 378.923 573.606 375.126 573.606 370.772 573.606 366.628 574.146 362.892 575.226 359.566 576.306 356.239 577.873 353.418 579.928 351.102 581.983 348.786 584.482 347.018 587.425 345.799 590.368 344.58 593.686 343.97 597.378 343.97ZM515.752 343.97C518.922 343.97 521.595 344.493 523.772 345.538 525.949 346.582 527.708 348.002 529.049 349.796 530.39 351.589 531.356 353.688 531.948 356.091 532.541 358.495 532.837 361.386 532.837 364.764L532.837 393.552C532.837 393.9 532.732 394.205 532.523 394.466 532.314 394.727 531.966 394.945 531.478 395.119 530.991 395.293 530.32 395.424 529.467 395.511 528.613 395.598 527.56 395.642 526.306 395.642 525.017 395.642 523.946 395.598 523.093 395.511 522.239 395.424 521.569 395.293 521.081 395.119 520.594 394.945 520.245 394.727 520.036 394.466 519.827 394.205 519.723 393.9 519.723 393.552L519.723 366.958C519.723 364.694 519.557 362.918 519.227 361.629 518.896 360.341 518.417 359.235 517.79 358.312 517.163 357.389 516.353 356.675 515.36 356.17 514.368 355.665 513.209 355.412 511.886 355.412 510.214 355.412 508.525 356.022 506.818 357.241 505.111 358.46 503.335 360.236 501.489 362.57L501.489 393.552C501.489 393.9 501.384 394.205 501.175 394.466 500.966 394.727 500.609 394.945 500.104 395.119 499.599 395.293 498.929 395.424 498.093 395.511 497.257 395.598 496.195 395.642 494.906 395.642 493.617 395.642 492.555 395.598 491.719 395.511 490.883 395.424 490.213 395.293 489.707 395.119 489.202 394.945 488.845 394.727 488.636 394.466 488.427 394.205 488.323 393.9 488.323 393.552L488.323 346.948C488.323 346.6 488.41 346.295 488.584 346.034 488.758 345.773 489.072 345.555 489.525 345.381 489.977 345.207 490.561 345.076 491.275 344.989 491.989 344.902 492.886 344.858 493.966 344.858 495.08 344.858 496.003 344.902 496.735 344.989 497.466 345.076 498.032 345.207 498.433 345.381 498.833 345.555 499.12 345.773 499.295 346.034 499.469 346.295 499.556 346.6 499.556 346.948L499.556 352.33C502.133 349.543 504.754 347.453 507.419 346.06 510.083 344.667 512.861 343.97 515.752 343.97ZM454.05 343.97C458.23 343.97 461.852 344.536 464.917 345.668 467.982 346.8 470.516 348.463 472.519 350.658 474.522 352.852 476.011 355.551 476.986 358.756 477.961 361.96 478.449 365.635 478.449 369.78 478.449 373.75 477.926 377.373 476.882 380.647 475.837 383.921 474.252 386.742 472.127 389.111 470.002 391.479 467.338 393.308 464.133 394.597 460.929 395.885 457.185 396.53 452.901 396.53 448.756 396.53 445.151 395.955 442.086 394.806 439.021 393.656 436.478 391.984 434.458 389.79 432.438 387.596 430.94 384.896 429.965 381.692 428.989 378.487 428.502 374.83 428.502 370.72 428.502 366.749 429.033 363.118 430.095 359.827 431.158 356.535 432.751 353.714 434.876 351.363 437 349.012 439.656 347.192 442.843 345.903 446.03 344.615 449.766 343.97 454.05 343.97ZM403.215 326.624C405.096 326.624 406.907 326.781 408.649 327.095 410.39 327.408 412.001 327.817 413.481 328.322 414.962 328.828 416.294 329.411 417.478 330.073 418.662 330.734 419.49 331.3 419.96 331.771 420.43 332.241 420.752 332.633 420.926 332.946 421.101 333.26 421.24 333.66 421.344 334.148 421.449 334.636 421.527 335.21 421.58 335.872 421.632 336.534 421.658 337.352 421.658 338.328 421.658 339.372 421.623 340.261 421.553 340.992 421.484 341.724 421.362 342.316 421.188 342.768 421.014 343.221 420.805 343.552 420.561 343.761 420.317 343.97 420.038 344.075 419.725 344.075 419.202 344.075 418.541 343.77 417.739 343.16 416.938 342.551 415.902 341.872 414.631 341.123 413.359 340.374 411.844 339.695 410.085 339.085 408.326 338.476 406.228 338.171 403.79 338.171 401.108 338.171 398.713 338.719 396.606 339.817 394.499 340.914 392.705 342.481 391.225 344.519 389.744 346.556 388.621 349.021 387.855 351.912 387.088 354.803 386.705 358.059 386.705 361.682 386.705 365.652 387.115 369.092 387.933 372 388.752 374.909 389.918 377.303 391.434 379.184 392.949 381.065 394.777 382.467 396.919 383.39 399.061 384.313 401.474 384.774 404.155 384.774 406.594 384.774 408.701 384.487 410.477 383.912 412.254 383.338 413.777 382.702 415.049 382.005 416.32 381.309 417.365 380.682 418.184 380.124 419.002 379.567 419.638 379.289 420.091 379.289 420.439 379.289 420.717 379.358 420.926 379.497 421.135 379.637 421.31 379.915 421.449 380.333 421.588 380.751 421.693 381.335 421.762 382.084 421.832 382.833 421.867 383.834 421.867 385.088 421.867 385.959 421.841 386.699 421.789 387.308 421.736 387.918 421.658 388.44 421.553 388.876 421.449 389.311 421.31 389.685 421.135 389.999 420.961 390.312 420.683 390.669 420.299 391.07 419.916 391.471 419.176 391.984 418.079 392.611 416.982 393.238 415.641 393.839 414.056 394.414 412.471 394.988 410.66 395.467 408.622 395.851 406.585 396.234 404.382 396.425 402.013 396.425 397.381 396.425 393.201 395.711 389.474 394.283 385.747 392.855 382.578 390.722 379.966 387.883 377.353 385.044 375.35 381.5 373.957 377.251 372.564 373.002 371.867 368.056 371.867 362.413 371.867 356.666 372.634 351.563 374.166 347.105 375.699 342.647 377.841 338.902 380.592 335.872 383.344 332.842 386.644 330.543 390.493 328.976 394.342 327.408 398.583 326.624 403.215 326.624ZM563.236 322.184C564.594 322.184 565.883 322.297 567.102 322.523 568.321 322.75 569.279 322.993 569.976 323.255 570.672 323.516 571.143 323.76 571.386 323.986 571.63 324.212 571.831 324.543 571.987 324.979 572.144 325.414 572.257 325.971 572.327 326.651 572.396 327.33 572.431 328.174 572.431 329.185 572.431 330.195 572.396 331.004 572.327 331.614 572.257 332.224 572.153 332.694 572.013 333.025 571.874 333.355 571.717 333.582 571.543 333.704 571.369 333.826 571.177 333.887 570.968 333.887 570.725 333.887 570.455 333.826 570.159 333.704 569.863 333.582 569.497 333.451 569.061 333.312 568.626 333.173 568.112 333.042 567.52 332.92 566.928 332.798 566.231 332.737 565.43 332.737 564.49 332.737 563.68 332.885 563.001 333.181 562.322 333.477 561.756 333.948 561.303 334.592 560.85 335.236 560.519 336.072 560.31 337.1 560.101 338.127 559.997 339.39 559.997 340.888L559.997 345.172 568.513 345.172C568.826 345.172 569.114 345.259 569.375 345.433 569.636 345.607 569.854 345.895 570.028 346.295 570.202 346.696 570.333 347.244 570.42 347.941 570.507 348.637 570.55 349.491 570.55 350.501 570.55 352.417 570.376 353.784 570.028 354.602 569.68 355.421 569.175 355.83 568.513 355.83L559.997 355.83 559.997 393.552C559.997 393.9 559.892 394.205 559.683 394.466 559.474 394.727 559.126 394.945 558.638 395.119 558.151 395.293 557.472 395.424 556.601 395.511 555.73 395.598 554.668 395.642 553.414 395.642 552.16 395.642 551.106 395.598 550.253 395.511 549.4 395.424 548.72 395.293 548.215 395.119 547.71 394.945 547.362 394.727 547.17 394.466 546.979 394.205 546.883 393.9 546.883 393.552L546.883 355.83 541.031 355.83C540.37 355.83 539.873 355.421 539.542 354.602 539.212 353.784 539.046 352.417 539.046 350.501 539.046 349.491 539.09 348.637 539.177 347.941 539.264 347.244 539.386 346.696 539.542 346.295 539.699 345.895 539.908 345.607 540.169 345.433 540.431 345.259 540.735 345.172 541.084 345.172L546.883 345.172 546.883 341.253C546.883 338.084 547.196 335.306 547.823 332.92 548.45 330.534 549.434 328.549 550.775 326.964 552.116 325.379 553.823 324.186 555.895 323.385 557.968 322.584 560.415 322.184 563.236 322.184Z" stroke="#FFC000" stroke-linejoin="round" stroke-miterlimit="10" fill="url(#fill1)" fill-rule="evenodd"/><text fill="#000000" fill-opacity="0" font-family="Arial,Arial_MSFontService,sans-serif" font-size="74.3462" x="371.867" y="387.236">Conferences</text></g></svg>