<svg width="960" height="189" xmlns="http://www.w3.org/2000/svg" xmlns:xlink="http://www.w3.org/1999/xlink" overflow="hidden"><defs><clipPath id="clip0"><rect x="0" y="0" width="960" height="189"/></clipPath><linearGradient x1="480" y1="-27.2846" x2="480" y2="193.515" gradientUnits="userSpaceOnUse" spreadMethod="reflect" id="fill1"><stop offset="0" stop-color="#FFC000"/><stop offset="0.04" stop-color="#FFD966"/><stop offset="0.87" stop-color="#FFF2CC"/><stop offset="1" stop-color="#FFF2CC"/></linearGradient></defs><g clip-path="url(#clip0)"><rect x="0" y="0" width="960" height="189" fill="#FFFFFF"/><path d="M736.702 75.7154C735.204 75.7154 733.722 75.94 732.254 76.3892 730.787 76.8384 729.289 77.5722 727.762 78.5904 726.235 79.6086 724.662 80.9263 723.045 82.5435 721.428 84.1607 719.721 86.1672 717.924 88.563L717.924 114.977C721.099 118.99 724.123 122.09 726.998 124.276 729.873 126.462 732.868 127.555 735.983 127.555 738.918 127.555 741.418 126.807 743.485 125.309 745.551 123.812 747.243 121.85 748.561 119.424 749.879 116.999 750.852 114.258 751.481 111.204 752.11 108.149 752.424 105.094 752.424 102.04 752.424 98.6255 752.17 95.3462 751.661 92.2017 751.151 89.0572 750.283 86.257 749.055 83.8013 747.827 81.3456 746.21 79.384 744.204 77.9165 742.197 76.4491 739.696 75.7154 736.702 75.7154ZM477.952 72.3912C475.077 72.3912 472.576 72.9302 470.45 74.0084 468.323 75.0865 466.556 76.539 465.149 78.3658 463.741 80.1926 462.663 82.3488 461.914 84.8345 461.166 87.3202 460.732 89.9706 460.612 92.7857L494.393 92.7857C494.573 86.4367 493.3 81.4504 490.575 77.8267 487.849 74.203 483.642 72.3912 477.952 72.3912ZM384.952 72.3912C382.077 72.3912 379.576 72.9302 377.45 74.0084 375.323 75.0865 373.556 76.539 372.149 78.3658 370.741 80.1926 369.663 82.3488 368.914 84.8345 368.166 87.3202 367.732 89.9706 367.612 92.7857L401.393 92.7857C401.573 86.4367 400.3 81.4504 397.575 77.8267 394.849 74.203 390.642 72.3912 384.952 72.3912ZM608.065 57.9263C610.281 57.9263 612.108 58.0012 613.545 58.1509 614.983 58.3007 616.136 58.5253 617.004 58.8248 617.873 59.1242 618.487 59.4986 618.846 59.9478 619.206 60.397 619.385 60.9211 619.385 61.5201L619.385 106.801C619.385 110.994 619.655 114.198 620.194 116.415 620.733 118.631 621.556 120.532 622.664 122.12 623.773 123.707 625.18 124.935 626.887 125.803 628.594 126.672 630.586 127.106 632.862 127.106 635.737 127.106 638.627 126.058 641.532 123.961 644.437 121.865 647.536 118.81 650.831 114.797L650.831 61.5201C650.831 60.9211 650.995 60.397 651.325 59.9478 651.654 59.4986 652.253 59.1242 653.122 58.8248 653.99 58.5253 655.143 58.3007 656.58 58.1509 658.018 58.0012 659.845 57.9263 662.061 57.9263 664.277 57.9263 666.104 58.0012 667.541 58.1509 668.979 58.3007 670.117 58.5253 670.955 58.8248 671.794 59.1242 672.393 59.4986 672.752 59.9478 673.112 60.397 673.291 60.9211 673.291 61.5201L673.291 141.661C673.291 142.26 673.142 142.784 672.842 143.233 672.543 143.682 672.019 144.057 671.27 144.356 670.521 144.655 669.533 144.88 668.305 145.03 667.077 145.18 665.535 145.254 663.678 145.254 661.702 145.254 660.099 145.18 658.871 145.03 657.644 144.88 656.67 144.655 655.952 144.356 655.233 144.057 654.724 143.682 654.424 143.233 654.125 142.784 653.975 142.26 653.975 141.661L653.975 132.407C649.543 137.198 645.036 140.792 640.454 143.188 635.871 145.584 631.125 146.782 626.213 146.782 620.703 146.782 616.076 145.883 612.332 144.086 608.589 142.29 605.564 139.834 603.258 136.719 600.952 133.605 599.305 129.996 598.317 125.893 597.329 121.79 596.834 116.684 596.834 110.575L596.834 61.5201C596.834 60.9211 596.999 60.397 597.329 59.9478 597.658 59.4986 598.257 59.1242 599.125 58.8248 599.994 58.5253 601.162 58.3007 602.629 58.1509 604.097 58.0012 605.909 57.9263 608.065 57.9263ZM743.35 56.399C749.22 56.399 754.221 57.552 758.354 59.858 762.487 62.164 765.856 65.3235 768.461 69.3365 771.067 73.3495 772.969 78.0214 774.166 83.3521 775.364 88.6828 775.963 94.3729 775.963 100.422 775.963 107.55 775.2 113.974 773.672 119.694 772.145 125.414 769.914 130.28 766.979 134.294 764.044 138.307 760.39 141.391 756.018 143.547 751.646 145.704 746.644 146.782 741.014 146.782 738.678 146.782 736.537 146.557 734.59 146.108 732.644 145.659 730.757 144.97 728.93 144.042 727.103 143.113 725.291 141.96 723.495 140.583 721.698 139.205 719.841 137.588 717.924 135.731L717.924 173.465C717.924 174.064 717.745 174.603 717.385 175.083 717.026 175.562 716.412 175.966 715.543 176.295 714.675 176.625 713.522 176.879 712.084 177.059 710.647 177.239 708.82 177.329 706.604 177.329 704.388 177.329 702.561 177.239 701.123 177.059 699.686 176.879 698.533 176.625 697.664 176.295 696.796 175.966 696.182 175.562 695.823 175.083 695.463 174.603 695.284 174.064 695.284 173.465L695.284 61.5201C695.284 60.9211 695.433 60.397 695.733 59.9478 696.032 59.4986 696.556 59.1242 697.305 58.8248 698.054 58.5253 699.042 58.3007 700.27 58.1509 701.498 58.0012 703.04 57.9263 704.897 57.9263 706.694 57.9263 708.206 58.0012 709.434 58.1509 710.662 58.3007 711.65 58.5253 712.399 58.8248 713.148 59.1242 713.672 59.4986 713.971 59.9478 714.271 60.397 714.42 60.9211 714.42 61.5201L714.42 70.9537C716.756 68.5578 719.047 66.4465 721.293 64.6197 723.539 62.7929 725.831 61.2655 728.166 60.0377 730.502 58.8098 732.913 57.8964 735.399 57.2974 737.885 56.6985 740.535 56.399 743.35 56.399ZM478.491 56.399C485.199 56.399 490.934 57.3873 495.696 59.3638 500.457 61.3404 504.366 64.0806 507.42 67.5845 510.475 71.0884 512.721 75.2362 514.159 80.0279 515.596 84.8195 516.315 90.0305 516.315 95.6607L516.315 99.2544C516.315 102.01 515.701 104.046 514.473 105.364 513.245 106.682 511.553 107.34 509.397 107.34L460.612 107.34C460.612 110.754 461.016 113.854 461.825 116.639 462.633 119.424 463.921 121.79 465.688 123.737 467.455 125.683 469.731 127.166 472.516 128.184 475.301 129.202 478.64 129.711 482.534 129.711 486.487 129.711 489.961 129.427 492.955 128.858 495.95 128.289 498.541 127.66 500.727 126.971 502.913 126.282 504.725 125.654 506.163 125.085 507.6 124.516 508.768 124.231 509.666 124.231 510.206 124.231 510.655 124.336 511.014 124.545 511.373 124.755 511.673 125.129 511.913 125.668 512.152 126.208 512.317 126.971 512.407 127.96 512.497 128.948 512.541 130.191 512.541 131.688 512.541 133.006 512.511 134.129 512.452 135.057 512.392 135.986 512.302 136.779 512.182 137.438 512.062 138.097 511.883 138.651 511.643 139.1 511.403 139.549 511.089 139.984 510.7 140.403 510.31 140.822 509.247 141.391 507.51 142.11 505.773 142.829 503.557 143.532 500.862 144.221 498.166 144.91 495.082 145.509 491.608 146.018 488.134 146.527 484.42 146.782 480.467 146.782 473.34 146.782 467.095 145.883 461.735 144.086 456.374 142.29 451.897 139.564 448.303 135.911 444.709 132.257 442.029 127.645 440.262 122.075 438.495 116.504 437.612 109.976 437.612 102.489 437.612 95.3612 438.54 88.9374 440.397 83.2173 442.254 77.4973 444.949 72.6457 448.483 68.6627 452.017 64.6796 456.314 61.6399 461.375 59.5435 466.437 57.4472 472.142 56.399 478.491 56.399ZM385.491 56.399C392.199 56.399 397.934 57.3873 402.696 59.3638 407.457 61.3404 411.366 64.0806 414.42 67.5845 417.475 71.0884 419.721 75.2362 421.159 80.0279 422.596 84.8195 423.315 90.0305 423.315 95.6607L423.315 99.2544C423.315 102.01 422.701 104.046 421.473 105.364 420.245 106.682 418.553 107.34 416.397 107.34L367.612 107.34C367.612 110.754 368.016 113.854 368.825 116.639 369.633 119.424 370.921 121.79 372.688 123.737 374.455 125.683 376.731 127.166 379.516 128.184 382.301 129.202 385.64 129.711 389.534 129.711 393.487 129.711 396.961 129.427 399.956 128.858 402.95 128.289 405.541 127.66 407.727 126.971 409.913 126.282 411.725 125.654 413.163 125.085 414.6 124.516 415.768 124.231 416.666 124.231 417.205 124.231 417.655 124.336 418.014 124.545 418.373 124.755 418.673 125.129 418.913 125.668 419.152 126.208 419.317 126.971 419.407 127.96 419.496 128.948 419.541 130.191 419.541 131.688 419.541 133.006 419.511 134.129 419.452 135.057 419.392 135.986 419.302 136.779 419.182 137.438 419.062 138.097 418.883 138.651 418.643 139.1 418.403 139.549 418.089 139.984 417.7 140.403 417.31 140.822 416.247 141.391 414.51 142.11 412.773 142.829 410.557 143.532 407.862 144.221 405.166 144.91 402.082 145.509 398.608 146.018 395.134 146.527 391.42 146.782 387.467 146.782 380.34 146.782 374.095 145.883 368.735 144.086 363.374 142.29 358.897 139.564 355.303 135.911 351.709 132.257 349.029 127.645 347.262 122.075 345.495 116.504 344.612 109.976 344.612 102.489 344.612 95.3612 345.54 88.9374 347.397 83.2173 349.254 77.4973 351.949 72.6457 355.483 68.6627 359.017 64.6796 363.314 61.6399 368.375 59.5435 373.437 57.4472 379.142 56.399 385.491 56.399ZM548.377 36.813C550.593 36.813 552.435 36.8879 553.903 37.0377 555.37 37.1874 556.523 37.427 557.362 37.7564 558.2 38.0858 558.799 38.4901 559.159 38.9693 559.518 39.4485 559.698 39.9875 559.698 40.5865L559.698 58.4654 577.127 58.4654C577.726 58.4654 578.25 58.6151 578.7 58.9146 579.149 59.2141 579.523 59.7082 579.823 60.397 580.122 61.0858 580.347 62.0292 580.497 63.2271 580.646 64.425 580.721 65.8925 580.721 67.6294 580.721 70.9237 580.422 73.2746 579.823 74.6822 579.224 76.0897 578.355 76.7935 577.217 76.7935L559.698 76.7935 559.698 114.438C559.698 118.81 560.386 122.09 561.764 124.276 563.142 126.462 565.597 127.555 569.131 127.555 570.329 127.555 571.407 127.45 572.366 127.241 573.324 127.031 574.177 126.792 574.926 126.522 575.675 126.252 576.304 126.013 576.813 125.803 577.322 125.594 577.786 125.489 578.206 125.489 578.565 125.489 578.909 125.594 579.239 125.803 579.568 126.013 579.823 126.432 580.002 127.061 580.182 127.69 580.347 128.543 580.497 129.622 580.646 130.7 580.721 132.077 580.721 133.754 580.721 136.39 580.556 138.411 580.227 139.819 579.898 141.226 579.463 142.215 578.924 142.784 578.385 143.353 577.592 143.862 576.543 144.311 575.495 144.76 574.267 145.15 572.86 145.479 571.452 145.809 569.925 146.063 568.278 146.243 566.631 146.422 564.969 146.512 563.291 146.512 558.799 146.512 554.906 145.943 551.612 144.805 548.317 143.667 545.592 141.915 543.436 139.549 541.28 137.183 539.693 134.204 538.674 130.61 537.656 127.016 537.147 122.764 537.147 117.852L537.147 76.7935 527.534 76.7935C526.396 76.7935 525.527 76.0897 524.928 74.6822 524.329 73.2746 524.03 70.9237 524.03 67.6294 524.03 65.8925 524.105 64.425 524.254 63.2271 524.404 62.0292 524.629 61.0858 524.928 60.397 525.228 59.7082 525.602 59.2141 526.051 58.9146 526.5 58.6151 527.024 58.4654 527.623 58.4654L537.147 58.4654 537.147 40.5865C537.147 39.9875 537.312 39.4485 537.641 38.9693 537.97 38.4901 538.569 38.0858 539.438 37.7564 540.306 37.427 541.474 37.1874 542.942 37.0377 544.409 36.8879 546.221 36.813 548.377 36.813ZM198.526 28.4576 213.979 28.4576C216.734 28.4576 219.1 28.6822 221.077 29.1314 223.053 29.5806 224.76 30.3293 226.198 31.3775 227.635 32.4257 228.833 33.8033 229.791 35.5103 230.75 37.2173 231.588 39.3287 232.307 41.8443L257.463 111.114 257.823 111.114 283.877 42.024C284.656 39.5084 285.51 37.3821 286.438 35.6451 287.366 33.9081 288.444 32.5005 289.672 31.4224 290.9 30.3443 292.353 29.5806 294.03 29.1314 295.707 28.6822 297.653 28.4576 299.87 28.4576L315.772 28.4576C317.389 28.4576 318.782 28.6672 319.95 29.0865 321.118 29.5057 322.076 30.1197 322.825 30.9283 323.573 31.7369 324.142 32.7252 324.532 33.8931 324.921 35.0611 325.116 36.3938 325.116 37.8912L325.116 141.481C325.116 142.08 324.951 142.619 324.622 143.098 324.292 143.577 323.693 143.967 322.825 144.266 321.956 144.566 320.803 144.805 319.366 144.985 317.928 145.165 316.101 145.254 313.885 145.254 311.729 145.254 309.932 145.165 308.495 144.985 307.057 144.805 305.919 144.566 305.08 144.266 304.242 143.967 303.643 143.577 303.284 143.098 302.924 142.619 302.745 142.08 302.745 141.481L302.745 46.8755 302.565 46.8755 268.873 141.391C268.634 142.17 268.245 142.814 267.706 143.323 267.166 143.832 266.433 144.236 265.504 144.536 264.576 144.835 263.393 145.03 261.956 145.12 260.518 145.21 258.781 145.254 256.745 145.254 254.708 145.254 252.971 145.18 251.534 145.03 250.096 144.88 248.913 144.641 247.985 144.311 247.056 143.982 246.323 143.577 245.784 143.098 245.245 142.619 244.885 142.05 244.706 141.391L212.182 46.8755 212.002 46.8755 212.002 141.481C212.002 142.08 211.838 142.619 211.508 143.098 211.179 143.577 210.565 143.967 209.666 144.266 208.768 144.566 207.615 144.805 206.207 144.985 204.8 145.165 202.988 145.254 200.772 145.254 198.616 145.254 196.819 145.165 195.381 144.985 193.944 144.805 192.791 144.566 191.922 144.266 191.054 143.967 190.455 143.577 190.125 143.098 189.796 142.619 189.631 142.08 189.631 141.481L189.631 37.8912C189.631 34.8365 190.44 32.5005 192.057 30.8834 193.674 29.2662 195.83 28.4576 198.526 28.4576Z" stroke="#FFC000" stroke-linejoin="round" stroke-miterlimit="10" fill="url(#fill1)" fill-rule="evenodd"/><text fill="#000000" fill-opacity="0" font-family="Arial,Arial_MSFontService,sans-serif" font-size="148.871" x="189.631" y="158.72">Meetup</text></g></svg>